<svg fill="#000000" xmlns="http://www.w3.org/2000/svg"  viewBox="0 0 50 50" width="50px" height="50px"><path fill="none" stroke="#000000" stroke-miterlimit="10" stroke-width="2" d="M36,6c4.411,0,8,3.589,8,8v22c0,4.411-3.589,8-8,8	H14c-4.411,0-8-3.589-8-8V14c0-4.411,3.589-8,8-8H36"/><polygon points="29.901,28.003 30.552,29.322 32.008,29.534 30.954,30.561 31.203,32.012 29.901,31.327 28.598,32.012 28.847,30.561 27.793,29.534 29.249,29.322"/><rect width="20" height="20" x="15" y="15" fill="none" stroke="#000000" stroke-miterlimit="10" stroke-width="2"/><path fill="none" stroke="#000000" stroke-miterlimit="10" stroke-width="2" d="M29,18.043V20c0,2.209-1.791,4-4,4h0	c-2.209,0-4-1.791-4-4v-1.989"/></svg>